<?xml version="1.0" standalone="no"?><svg xmlns="http://www.w3.org/2000/svg" viewBox="0 0 1440 320"><path fill="#212121" fill-opacity="1" d="M0,96L40,90.7C80,85,160,75,240,80C320,85,400,107,480,122.7C560,139,640,149,720,138.7C800,128,880,96,960,106.7C1040,117,1120,171,1200,192C1280,213,1360,203,1400,197.3L1440,192L1440,320L1400,320C1360,320,1280,320,1200,320C1120,320,1040,320,960,320C880,320,800,320,720,320C640,320,560,320,480,320C400,320,320,320,240,320C160,320,80,320,40,320L0,320Z"></path></svg>